<svg width="537" height="160" viewBox="0 0 537 160" fill="none" xmlns="http://www.w3.org/2000/svg">
<path d="M533.418 141.111C533.418 143.125 533.021 145.119 532.249 146.979C531.478 148.839 530.347 150.529 528.922 151.952C527.497 153.376 525.806 154.504 523.944 155.273C522.082 156.042 520.088 156.437 518.073 156.435H15.9262C11.8563 156.439 7.95131 154.827 5.07006 151.954C2.18881 149.08 0.567224 145.18 0.56192 141.111V18.9052C0.567222 14.8345 2.18817 10.9323 5.06884 8.05539C7.94952 5.17848 11.8544 3.56203 15.9262 3.56097H518.069C520.085 3.56097 522.08 3.95789 523.942 4.72906C525.804 5.50023 527.496 6.63054 528.921 8.05543C530.346 9.48033 531.476 11.1719 532.247 13.0335C533.018 14.8951 533.414 16.8904 533.414 18.9052L533.418 141.111Z" fill="white"/>
<path d="M533.418 141.111C533.418 143.125 533.021 145.119 532.249 146.979C531.478 148.839 530.347 150.529 528.922 151.952C527.497 153.376 525.806 154.504 523.944 155.273C522.082 156.042 520.088 156.437 518.073 156.435H15.9262C11.8563 156.439 7.95131 154.827 5.07006 151.954C2.18881 149.08 0.567224 145.18 0.56192 141.111V18.9052C0.567222 14.8345 2.18817 10.9323 5.06884 8.05539C7.94952 5.17848 11.8544 3.56203 15.9262 3.56097H518.069C520.085 3.56097 522.08 3.95789 523.942 4.72906C525.804 5.50023 527.496 6.63054 528.921 8.05543C530.346 9.48033 531.476 11.1719 532.247 13.0335C533.018 14.8951 533.414 16.8904 533.414 18.9052L533.418 141.111Z" fill="black"/>
<path d="M117.577 79.1577C117.461 66.2622 128.139 59.9885 128.627 59.6964C122.58 50.882 113.207 49.6776 109.913 49.5816C102.041 48.7534 94.4046 54.2909 90.3944 54.2909C86.3042 54.2909 80.1289 49.6616 73.4733 49.7977C64.9087 49.9297 56.8963 54.8871 52.502 62.5852C43.4331 78.2815 50.1967 101.348 58.8854 114.035C63.2318 120.253 68.3105 127.187 74.9581 126.943C81.4616 126.679 83.8909 122.802 91.7391 122.802C99.5153 122.802 101.797 126.943 108.576 126.787C115.556 126.679 119.95 120.545 124.145 114.275C129.167 107.157 131.184 100.14 131.264 99.7794C131.104 99.7234 117.713 94.61 117.577 79.1577V79.1577ZM104.77 41.2353C108.268 36.8621 110.661 30.9125 109.997 24.8748C104.934 25.0989 98.6028 28.3758 94.9569 32.653C91.7311 36.422 88.8496 42.5997 89.594 48.4093C95.281 48.8334 101.12 45.5405 104.77 41.2353V41.2353Z" fill="white"/>
<path d="M518.073 0H249.108L354.457 160H518.073C523.088 159.996 527.896 158.004 531.444 154.46C534.992 150.917 536.99 146.112 536.999 141.099V18.9092C536.991 13.8947 534.994 9.08816 531.446 5.54349C527.898 1.99882 523.089 0.00528912 518.073 0V0Z" fill="url(#paint0_linear_3_16)"/>
<path d="M211.776 126.051H202.687L197.708 110.41H180.403L175.66 126.051H166.812L183.961 72.804H194.551L211.776 126.051V126.051ZM196.208 103.849L191.705 89.9447C191.229 88.5243 190.332 85.1794 189.02 79.914H188.86C188.331 82.1786 187.487 85.5235 186.33 89.9447L181.904 103.849H196.208ZM255.792 106.381C255.792 112.911 254.019 118.072 250.469 121.862C247.291 125.234 243.341 126.919 238.63 126.919C233.544 126.919 229.886 125.106 227.664 121.473V141.619H219.132V100.276C219.132 96.1744 219.024 91.9693 218.816 87.6561H226.32L226.796 93.7418H226.956C229.802 89.1565 234.12 86.8639 239.915 86.8639C244.446 86.8639 248.228 88.6524 251.253 92.2334C254.275 95.8224 255.792 100.536 255.792 106.381ZM247.099 106.693C247.099 102.956 246.259 99.8755 244.57 97.4468C242.725 94.9221 240.247 93.6578 237.142 93.6578C235.036 93.6578 233.123 94.3619 231.415 95.7503C229.702 97.1507 228.581 98.9792 228.057 101.244C227.823 102.091 227.69 102.962 227.66 103.841V110.246C227.66 113.035 228.517 115.392 230.23 117.32C231.943 119.241 234.168 120.205 236.905 120.205C240.119 120.205 242.621 118.961 244.41 116.492C246.202 114.015 247.099 110.75 247.099 106.693V106.693ZM299.963 106.381C299.963 112.911 298.191 118.072 294.641 121.862C291.459 125.234 287.513 126.919 282.798 126.919C277.712 126.919 274.054 125.106 271.832 121.473V141.619H263.3V100.276C263.3 96.1744 263.192 91.9693 262.984 87.6561H270.488L270.964 93.7418H271.124C273.965 89.1565 278.284 86.8639 284.083 86.8639C288.609 86.8639 292.391 88.6524 295.425 92.2334C298.443 95.8224 299.963 100.536 299.963 106.381V106.381ZM291.267 106.693C291.267 102.956 290.422 99.8755 288.733 97.4468C286.888 94.9221 284.419 93.6578 281.313 93.6578C279.208 93.6578 277.295 94.3619 275.578 95.7503C273.865 97.1507 272.749 98.9792 272.225 101.244C271.964 102.3 271.824 103.16 271.824 103.841V110.246C271.824 113.035 272.685 115.392 274.39 117.32C276.103 119.237 278.328 120.205 281.073 120.205C284.291 120.205 286.792 118.961 288.577 116.492C290.37 114.015 291.267 110.75 291.267 106.693V106.693ZM349.35 111.115C349.35 115.648 347.765 119.333 344.616 122.178C341.15 125.282 336.311 126.839 330.108 126.839C324.377 126.839 319.782 125.735 316.316 123.522L318.289 116.412C322.031 118.629 326.142 119.733 330.616 119.733C333.834 119.733 336.335 119.005 338.12 117.56C339.909 116.112 340.814 114.175 340.814 111.759C340.814 109.594 340.065 107.782 338.596 106.305C337.12 104.833 334.678 103.46 331.248 102.2C321.923 98.7231 317.257 93.6378 317.257 86.9479C317.257 82.5787 318.906 79.0017 322.195 76.205C325.485 73.4122 329.848 72.0158 335.275 72.0158C340.121 72.0158 344.159 72.86 347.365 74.5445L345.224 81.4984C342.206 79.866 338.8 79.0497 334.99 79.0497C331.981 79.0497 329.62 79.7899 327.931 81.2623C326.51 82.5787 325.789 84.1832 325.789 86.0877C325.789 88.1883 326.61 89.9327 328.243 91.3011C329.66 92.5615 332.245 93.9338 335.983 95.4062C340.569 97.2547 343.939 99.4073 346.096 101.88C348.27 104.353 349.35 107.438 349.35 111.115ZM377.633 94.0579H368.228V112.699C368.228 117.44 369.885 119.805 373.207 119.805C374.732 119.805 375.997 119.677 376.997 119.409L377.233 125.887C375.552 126.515 373.339 126.831 370.598 126.831C367.228 126.831 364.594 125.803 362.693 123.746C360.8 121.689 359.848 118.245 359.848 113.395V94.0419H354.245V87.6401H359.848V80.6102L368.228 78.0815V87.6401H377.633V94.0579V94.0579ZM419.984 106.537C419.984 112.439 418.295 117.284 414.926 121.073C411.4 124.974 406.709 126.919 400.862 126.919C395.219 126.919 390.732 125.05 387.387 121.317C384.041 117.576 382.368 112.863 382.368 107.177C382.368 101.228 384.097 96.3545 387.543 92.5655C390.997 88.7724 395.647 86.8759 401.494 86.8759C407.129 86.8759 411.656 88.7484 415.082 92.4854C418.355 96.1104 419.984 100.792 419.984 106.537ZM411.139 106.733C411.139 103.216 410.379 100.2 408.854 97.6749C407.065 94.626 404.504 93.1016 401.186 93.1016C397.768 93.1016 395.147 94.626 393.362 97.6749C391.833 100.2 391.073 103.268 391.073 106.893C391.073 110.414 391.833 113.439 393.362 115.956C395.207 119.005 397.78 120.529 401.114 120.529C404.376 120.529 406.933 118.973 408.782 115.88C410.351 113.295 411.139 110.258 411.139 106.733ZM447.731 95.1582C446.844 94.998 445.944 94.919 445.042 94.9221C442.04 94.9221 439.719 96.0504 438.086 98.323C436.669 100.324 435.957 102.852 435.957 105.905V126.051H427.424V99.7474C427.432 95.717 427.349 91.6869 427.176 87.6601H434.608L434.92 95.0061H435.156C436.061 92.4814 437.478 90.4449 439.423 88.9205C441.203 87.5884 443.366 86.867 445.59 86.8639C446.379 86.8639 447.091 86.9199 447.723 87.0199L447.731 95.1582V95.1582ZM485.892 105.037C485.913 106.334 485.809 107.629 485.58 108.906H459.982C460.078 112.699 461.319 115.604 463.696 117.604C465.853 119.389 468.643 120.285 472.068 120.285C475.858 120.285 479.316 119.685 482.426 118.473L483.763 124.39C480.129 125.975 475.838 126.763 470.888 126.763C464.933 126.763 460.258 125.01 456.856 121.513C453.462 118.012 451.761 113.307 451.761 107.414C451.761 101.628 453.342 96.8066 456.508 92.9616C459.822 88.8564 464.3 86.8039 469.935 86.8039C475.47 86.8039 479.66 88.8564 482.506 92.9616C484.759 96.2145 485.892 100.248 485.892 105.037V105.037ZM477.755 102.824C477.816 100.292 477.255 98.111 476.099 96.2665C474.622 93.8898 472.349 92.7055 469.303 92.7055C466.513 92.7055 464.24 93.8618 462.511 96.1824C461.09 98.027 460.246 100.244 459.986 102.816L477.755 102.824Z" fill="white"/>
<path d="M177.942 53.9789C175.568 53.9789 173.515 53.8628 171.806 53.6668V27.9237C174.196 27.5546 176.612 27.3726 179.03 27.3796C188.816 27.3796 193.322 32.1929 193.322 40.039C193.322 49.0895 187.999 53.9789 177.942 53.9789ZM179.374 30.6805C178.054 30.6805 176.929 30.7605 175.997 30.9525V50.5219C176.501 50.6019 177.469 50.638 178.83 50.638C185.242 50.638 188.892 46.9889 188.892 40.1551C188.892 34.0614 185.59 30.6805 179.374 30.6805V30.6805ZM207.366 54.1749C201.851 54.1749 198.277 50.0578 198.277 44.4683C198.277 38.6427 201.927 34.4895 207.678 34.4895C213.113 34.4895 216.767 38.4106 216.767 44.1602C216.767 50.0578 213.001 54.1749 207.366 54.1749ZM207.526 37.5544C204.496 37.5544 202.555 40.3871 202.555 44.3482C202.555 48.2333 204.536 51.0661 207.486 51.0661C210.435 51.0661 212.416 48.0372 212.416 44.2682C212.416 40.4271 210.475 37.5544 207.526 37.5544ZM248.216 34.8776L242.312 53.7468H238.466L236.021 45.5526C235.413 43.5482 234.907 41.5144 234.504 39.4589H234.424C234.116 41.5154 233.532 43.576 232.911 45.5526L230.31 53.7468H226.424L220.869 34.8776H225.179L227.316 43.8481C227.821 45.9847 228.245 48.0012 228.597 49.9057H228.677C228.985 48.3173 229.489 46.3328 230.23 43.8881L232.911 34.8816H236.329L238.895 43.696C239.515 45.8326 240.019 47.9292 240.411 49.9098H240.523C240.796 47.9692 241.224 45.9086 241.804 43.696L244.097 34.8816L248.216 34.8776V34.8776ZM269.947 53.7468H265.753V42.9118C265.753 39.5749 264.472 37.9024 261.947 37.9024C259.462 37.9024 257.753 40.039 257.753 42.5237V53.7468H253.558V40.2711C253.558 38.6026 253.518 36.8141 253.402 34.8736H257.092L257.288 37.7864H257.405C258.533 35.7699 260.822 34.4895 263.388 34.4895C267.35 34.4895 269.951 37.5183 269.951 42.4477L269.947 53.7468V53.7468ZM281.514 53.7468H277.315V26.2192H281.514V53.7468ZM296.806 54.1749C291.295 54.1749 287.717 50.0578 287.717 44.4683C287.717 38.6427 291.367 34.4895 297.114 34.4895C302.553 34.4895 306.203 38.4106 306.203 44.1602C306.207 50.0578 302.437 54.1749 296.806 54.1749ZM296.962 37.5544C293.932 37.5544 291.991 40.3871 291.991 44.3482C291.991 48.2333 293.976 51.0661 296.918 51.0661C299.871 51.0661 301.849 48.0372 301.849 44.2682C301.853 40.4271 299.915 37.5544 296.962 37.5544V37.5544ZM322.74 53.7468L322.436 51.5742H322.324C321.043 53.3227 319.174 54.1749 316.805 54.1749C313.423 54.1749 311.021 51.8063 311.021 48.6214C311.021 43.9641 315.06 41.5555 322.051 41.5555V41.2074C322.051 38.7227 320.735 37.4783 318.133 37.4783C316.272 37.4783 314.639 37.9465 313.203 38.8787L312.35 36.122C314.095 35.0337 316.272 34.4895 318.83 34.4895C323.76 34.4895 326.25 37.0902 326.25 42.2957V49.2456C326.25 51.1501 326.334 52.6265 326.522 53.7508L322.74 53.7468V53.7468ZM322.163 44.3482C317.505 44.3482 315.168 45.4765 315.168 48.1533C315.168 50.1338 316.372 51.1021 318.045 51.1021C320.178 51.1021 322.163 49.4736 322.163 47.261V44.3482V44.3482ZM346.617 53.7468L346.421 50.718H346.305C345.1 53.0066 343.075 54.1749 340.245 54.1749C335.695 54.1749 332.325 50.1738 332.325 44.5443C332.325 38.6427 335.819 34.4855 340.589 34.4855C343.115 34.4855 344.904 35.3377 345.912 37.0502H345.996V26.2192H350.195V48.6614C350.195 50.4859 350.239 52.1944 350.351 53.7468H346.617ZM345.996 42.6438C345.996 40.003 344.247 37.7504 341.578 37.7504C338.468 37.7504 336.567 40.5072 336.567 44.3882C336.567 48.1933 338.54 50.798 341.494 50.798C344.131 50.798 345.996 48.5054 345.996 45.7886V42.6438ZM376.813 54.1749C371.302 54.1749 367.728 50.0578 367.728 44.4683C367.728 38.6427 371.378 34.4895 377.125 34.4895C382.564 34.4895 386.214 38.4106 386.214 44.1602C386.218 50.0578 382.452 54.1749 376.813 54.1749ZM376.969 37.5544C373.943 37.5544 372.002 40.3871 372.002 44.3482C372.002 48.2333 373.983 51.0661 376.929 51.0661C379.883 51.0661 381.86 48.0372 381.86 44.2682C381.868 40.4271 379.927 37.5544 376.969 37.5544ZM408.77 53.7468H404.572V42.9118C404.572 39.5749 403.291 37.9024 400.766 37.9024C398.281 37.9024 396.576 40.039 396.576 42.5237V53.7468H392.377V40.2711C392.377 38.6026 392.337 36.8141 392.221 34.8736H395.911L396.107 37.7864H396.223C397.348 35.7699 399.641 34.4855 402.203 34.4855C406.165 34.4855 408.77 37.5143 408.77 42.4437V53.7468ZM436.989 38.0225H432.375V47.185C432.375 49.5176 433.183 50.682 434.816 50.682C435.557 50.682 436.177 50.6019 436.677 50.4859L436.793 53.6708C435.981 53.9829 434.892 54.1389 433.54 54.1389C430.234 54.1389 428.257 52.3144 428.257 47.5371V38.0225H425.503V34.8776H428.257V31.4207L432.375 30.1763V34.8736H436.989V38.0225V38.0225ZM459.193 53.7468H455.003V42.9918C455.003 39.6149 453.726 37.9065 451.197 37.9065C449.024 37.9065 446.999 39.3829 446.999 42.3717V53.7468H442.809V26.2192H446.999V37.5544H447.083C448.404 35.4978 450.317 34.4855 452.758 34.4855C456.752 34.4855 459.193 37.5904 459.193 42.5237V53.7468V53.7468ZM481.942 45.3205H469.355C469.435 48.8935 471.8 50.91 475.302 50.91C477.163 50.91 478.876 50.5979 480.389 50.0178L481.041 52.9306C479.256 53.7068 477.155 54.0949 474.71 54.0949C468.807 54.0949 465.313 50.3659 465.313 44.5843C465.313 38.7987 468.891 34.4495 474.238 34.4495C479.06 34.4495 482.086 38.0225 482.086 43.42C482.113 44.0569 482.065 44.6949 481.942 45.3205V45.3205ZM478.096 42.3317C478.096 39.4189 476.627 37.3623 473.945 37.3623C471.536 37.3623 469.631 39.4589 469.359 42.3317H478.096V42.3317Z" fill="white"/>
<defs>
<linearGradient id="paint0_linear_3_16" x1="393.049" y1="160.425" x2="393.049" y2="-416.612" gradientUnits="userSpaceOnUse">
<stop stop-color="#1A1A1A" stop-opacity="0.1"/>
<stop offset="0.123" stop-color="#212121" stop-opacity="0.151"/>
<stop offset="0.308" stop-color="#353535" stop-opacity="0.227"/>
<stop offset="0.532" stop-color="#575757" stop-opacity="0.318"/>
<stop offset="0.783" stop-color="#858585" stop-opacity="0.421"/>
<stop offset="1" stop-color="#B3B3B3" stop-opacity="0.51"/>
</linearGradient>
</defs>
</svg>
