<svg width="540" height="160" viewBox="0 0 540 160" fill="none" xmlns="http://www.w3.org/2000/svg">
<path d="M520 160H20C8.8 160 0 151.2 0 140V19.9999C0 8.79998 8.8 0 20 0H520C531.2 0 540 8.79998 540 19.9999V140C540 151.2 531.2 160 520 160Z" fill="black"/>
<path d="M272.4 87.1925C262.8 87.1925 255.2 94.3925 255.2 104.393C255.2 113.993 262.8 121.593 272.4 121.593C282 121.593 289.6 114.393 289.6 104.393C289.6 93.9925 282 87.1925 272.4 87.1925ZM272.4 114.393C267.2 114.393 262.8 109.993 262.8 103.993C262.8 97.9926 267.2 93.5925 272.4 93.5925C277.6 93.5925 282 97.5926 282 103.993C282 109.993 277.6 114.393 272.4 114.393ZM235.2 87.1925C225.6 87.1925 218 94.3925 218 104.393C218 113.993 225.6 121.593 235.2 121.593C244.8 121.593 252.4 114.393 252.4 104.393C252.4 93.9925 244.8 87.1925 235.2 87.1925ZM235.2 114.393C230 114.393 225.6 109.993 225.6 103.993C225.6 97.9926 230 93.5925 235.2 93.5925C240.4 93.5925 244.8 97.5926 244.8 103.993C244.8 109.993 240.4 114.393 235.2 114.393ZM190.8 92.3925V99.5926H208C207.6 103.593 206 106.793 204 108.793C201.6 111.193 197.6 113.993 190.8 113.993C180 113.993 172 105.593 172 94.7925C172 83.9925 180.4 75.5924 190.8 75.5924C196.4 75.5924 200.8 77.9924 204 80.7925L209.2 75.5924C204.8 71.5924 199.2 68.3924 191.2 68.3924C176.8 68.3924 164.4 80.3925 164.4 94.7925C164.4 109.193 176.8 121.193 191.2 121.193C199.2 121.193 204.8 118.793 209.6 113.593C214.4 108.793 216 101.993 216 96.7925C216 95.1925 216 93.5925 215.6 92.3925H190.8V92.3925ZM372.4 97.9926C370.8 93.9925 366.8 87.1925 358 87.1925C349.2 87.1925 342 93.9925 342 104.393C342 113.993 349.2 121.593 358.8 121.593C366.4 121.593 371.2 116.793 372.8 113.993L367.2 109.993C365.2 112.793 362.8 114.793 358.8 114.793C354.8 114.793 352.4 113.193 350.4 109.593L373.2 99.9926L372.4 97.9926V97.9926ZM349.2 103.593C349.2 97.1925 354.4 93.5925 358 93.5925C360.8 93.5925 363.6 95.1925 364.4 97.1925L349.2 103.593ZM330.4 119.993H338V69.9924H330.4V119.993ZM318.4 90.7925C316.4 88.7925 313.2 86.7925 309.2 86.7925C300.8 86.7925 292.8 94.3925 292.8 103.993C292.8 113.593 300.4 120.793 309.2 120.793C313.2 120.793 316.4 118.793 318 116.793H318.4V119.193C318.4 125.593 314.8 129.193 309.2 129.193C304.8 129.193 301.6 125.993 300.8 123.193L294.4 125.993C296.4 130.393 301.2 135.993 309.6 135.993C318.4 135.993 325.6 130.793 325.6 118.393V87.9925H318.4V90.7925V90.7925ZM309.6 114.393C304.4 114.393 300 109.993 300 103.993C300 97.9926 304.4 93.5925 309.6 93.5925C314.8 93.5925 318.8 97.9926 318.8 103.993C318.8 109.993 314.8 114.393 309.6 114.393ZM407.2 69.9924H389.2V119.993H396.8V101.193H407.2C415.6 101.193 423.6 95.1925 423.6 85.5925C423.6 75.9924 415.6 69.9924 407.2 69.9924V69.9924ZM407.6 93.9925H396.8V76.7924H407.6C413.2 76.7924 416.4 81.5925 416.4 85.1925C416 89.5925 412.8 93.9925 407.6 93.9925ZM453.6 86.7925C448 86.7925 442.4 89.1925 440.4 94.3925L447.2 97.1925C448.8 94.3925 451.2 93.5925 454 93.5925C458 93.5925 461.6 95.9925 462 99.9926V100.393C460.8 99.5926 457.6 98.3926 454.4 98.3926C447.2 98.3926 440 102.393 440 109.593C440 116.393 446 120.793 452.4 120.793C457.6 120.793 460 118.393 462 115.993H462.4V119.993H469.6V100.793C468.8 91.9925 462 86.7925 453.6 86.7925V86.7925ZM452.8 114.393C450.4 114.393 446.8 113.193 446.8 109.993C446.8 105.993 451.2 104.793 454.8 104.793C458 104.793 459.6 105.593 461.6 106.393C460.8 111.193 456.8 114.393 452.8 114.393V114.393ZM494.8 87.9925L486.4 109.593H486L477.2 87.9925H469.2L482.4 118.393L474.8 135.193H482.4L502.8 87.9925H494.8V87.9925ZM427.6 119.993H435.2V69.9924H427.6V119.993Z" fill="white"/>
<path d="M41.6091 29.9945C40.4092 31.1945 40.0092 33.1946 40.0092 35.5946V123.995C40.0092 126.395 40.8091 128.395 42.0091 129.595L42.4091 129.995L92.0088 80.3948V79.5948L41.6091 29.9945Z" fill="url(#paint0_linear_3_27)"/>
<path d="M107.995 97.2015L91.5948 80.8015V79.6015L107.995 63.2015L108.395 63.6015L127.995 74.8015C133.595 78.0015 133.595 83.2015 127.995 86.4015L107.995 97.2015V97.2015Z" fill="url(#paint1_linear_3_27)"/>
<path d="M108.395 96.7936L91.5955 79.9936L41.5957 129.994C43.5957 131.994 46.3957 131.994 49.9957 130.394L108.395 96.7936" fill="url(#paint2_linear_3_27)"/>
<path d="M108.395 63.192L49.9957 29.9919C46.3957 27.9919 43.5957 28.3919 41.5957 30.3919L91.5955 79.9921L108.395 63.192V63.192Z" fill="url(#paint3_linear_3_27)"/>
<path opacity="0.2" d="M107.996 96.4038L49.9957 129.204C46.7957 131.204 43.9957 130.804 41.9957 129.204L41.5957 129.604L41.9957 130.004C43.9957 131.604 46.7957 132.004 49.9957 130.004L107.996 96.4038Z" fill="black"/>
<path opacity="0.12" d="M41.6092 129.193C40.4092 127.993 40.0092 125.993 40.0092 123.593V123.993C40.0092 126.393 40.8092 128.393 42.0092 129.593V129.193H41.6092ZM128.01 85.1936L108.01 96.3935L108.41 96.7935L128.01 85.5936C130.81 83.9936 132.01 81.9936 132.01 79.9936C132.01 81.9936 130.41 83.5936 128.01 85.1936V85.1936Z" fill="black"/>
<path opacity="0.25" d="M50.0092 30.4L128.01 74.8002C130.41 76.4002 132.01 78.0002 132.01 80.0002C132.01 78.0002 130.81 76.0002 128.01 74.4002L50.0092 30C44.4092 26.8 40.0092 29.2 40.0092 35.6001V36.0001C40.0092 30 44.4092 27.2 50.0092 30.4Z" fill="white"/>
<path d="M184.806 48.7999C182.406 51.1999 179.606 52.3999 176.006 52.3999C172.406 52.3999 169.606 51.1999 167.206 48.7999C164.806 46.3999 163.606 43.6 163.606 40C163.606 36.4 164.806 33.6 167.206 31.2C169.606 28.8 172.406 27.6 176.006 27.6C179.606 27.6 182.406 28.8 184.806 31.2C187.206 33.6 188.406 36.4 188.406 40C188.406 43.6 187.206 46.3999 184.806 48.7999ZM169.606 46.7999C171.206 48.3999 173.606 49.5999 176.006 49.5999C178.406 49.5999 180.806 48.7999 182.406 46.7999C184.006 45.2 185.206 42.8 185.206 40C185.206 37.2 184.406 34.8 182.406 33.2C180.806 31.6 178.406 30.4 176.006 30.4C173.606 30.4 171.206 31.2 169.606 33.2C168.006 34.8 166.806 37.2 166.806 40C166.806 42.8 167.606 45.2 169.606 46.7999ZM192.806 51.9999V28H196.406L208.006 46.7999V28H211.206V51.9999H208.006L196.006 32.4V51.9999H192.806ZM224.806 51.9999H221.606V30.8H214.806V28H231.206V30.8H224.406V51.9999H224.806ZM235.606 51.9999V28H242.806C246.406 28 249.606 29.2 251.606 31.2C254.006 33.6 254.806 36.4 254.806 40C254.806 43.6 253.606 46.3999 251.606 48.7999C249.206 51.1999 246.406 51.9999 242.806 51.9999H235.606ZM238.406 49.1999H242.806C245.606 49.1999 247.606 48.3999 249.206 46.7999C250.806 45.2 251.606 42.8 251.606 40C251.606 37.2 250.806 34.8 249.206 33.2C247.606 31.6 245.206 30.8 242.806 30.8H238.406V49.1999V49.1999ZM273.207 30.8H262.406V38.4H272.407V41.2H262.406V48.7999H273.207V51.9999H259.207V28H273.207V30.8ZM296.007 28L287.207 38.4L296.807 51.9999H293.207L285.207 40.8L281.607 45.2V51.9999H278.407V28H281.607V40.4L292.007 28H296.007ZM307.607 51.9999V28H310.807V38.4H322.807V28H326.007V51.9999H322.807V41.2H310.807V51.9999H307.607ZM345.607 30.8H334.807V38.4H344.807V41.2H334.807V48.7999H345.607V51.9999H331.607V28H345.607V30.8ZM358.407 51.9999H355.207V30.8H348.407V28H364.807V30.8H358.007V51.9999H358.407ZM396.407 48.7999C394.007 51.1999 391.207 52.3999 387.607 52.3999C384.007 52.3999 381.207 51.1999 378.807 48.7999C376.407 46.3999 375.207 43.6 375.207 40C375.207 36.4 376.407 33.6 378.807 31.2C381.207 28.8 384.007 27.6 387.607 27.6C391.207 27.6 394.007 28.8 396.407 31.2C398.807 33.6 400.007 36.4 400.007 40C400.007 43.6 398.807 46.3999 396.407 48.7999ZM381.207 46.7999C382.807 48.3999 385.207 49.5999 387.607 49.5999C390.007 49.5999 392.407 48.7999 394.007 46.7999C395.607 45.2 396.807 42.8 396.807 40C396.807 37.2 396.007 34.8 394.007 33.2C392.407 31.6 390.007 30.4 387.607 30.4C385.207 30.4 382.807 31.2 381.207 33.2C379.607 34.8 378.407 37.2 378.407 40C378.407 42.8 379.207 45.2 381.207 46.7999ZM407.207 51.9999H404.007V28H412.007C414.007 28 415.607 28.8 417.207 30C418.807 31.2 419.607 33.2 419.607 35.2C419.607 37.2 418.807 38.8 417.207 40.4C415.607 41.6 414.007 42.4 412.007 42.4H406.807V51.9999H407.207ZM407.207 39.2H412.407C413.607 39.2 414.807 38.8 415.607 38C416.407 37.2 416.807 36 416.807 35.2C416.807 34.4 416.407 33.2 415.607 32.4C414.807 31.6 413.607 31.2 412.407 31.2H407.207V39.2Z" fill="white" stroke="white" stroke-width="0.2" stroke-miterlimit="10"/>
<defs>
<linearGradient id="paint0_linear_3_27" x1="87.2088" y1="34.8346" x2="20.0765" y2="101.962" gradientUnits="userSpaceOnUse">
<stop stop-color="#00A0FF"/>
<stop offset="0.007" stop-color="#00A1FF"/>
<stop offset="0.26" stop-color="#00BEFF"/>
<stop offset="0.512" stop-color="#00D2FF"/>
<stop offset="0.76" stop-color="#00DFFF"/>
<stop offset="1" stop-color="#00E3FF"/>
</linearGradient>
<linearGradient id="paint1_linear_3_27" x1="135.331" y1="80.0055" x2="38.5429" y2="80.0055" gradientUnits="userSpaceOnUse">
<stop stop-color="#FFE000"/>
<stop offset="0.409" stop-color="#FFBD00"/>
<stop offset="0.775" stop-color="#FFA500"/>
<stop offset="1" stop-color="#FF9C00"/>
</linearGradient>
<linearGradient id="paint2_linear_3_27" x1="99.3035" y1="89.1776" x2="8.27165" y2="180.209" gradientUnits="userSpaceOnUse">
<stop stop-color="#FF3A44"/>
<stop offset="1" stop-color="#C31162"/>
</linearGradient>
<linearGradient id="paint3_linear_3_27" x1="29.1838" y1="0.695864" x2="69.8359" y2="41.3477" gradientUnits="userSpaceOnUse">
<stop stop-color="#32A071"/>
<stop offset="0.069" stop-color="#2DA771"/>
<stop offset="0.476" stop-color="#15CF74"/>
<stop offset="0.801" stop-color="#06E775"/>
<stop offset="1" stop-color="#00F076"/>
</linearGradient>
</defs>
</svg>
