<svg width="924" height="262" viewBox="0 0 924 262" fill="none" xmlns="http://www.w3.org/2000/svg">
<path d="M47.9924 0.984053C29.0924 8.89281 8.30989 31.2125 1.75028 59.2861C-6.5721 94.8253 28.0281 109.834 30.8551 104.937C34.1816 99.1292 24.6353 97.1799 22.6859 78.7524C20.1778 54.9228 31.2279 28.2992 45.1718 16.617C47.7728 14.4815 47.6466 17.4951 47.6466 23.0503C47.6466 33.0691 47.0878 122.706 47.0878 141.42C47.0878 166.753 46.05 174.729 44.134 182.605C42.251 190.616 39.2045 196.017 41.4996 198.12C44.1006 200.441 55.1507 194.913 61.5571 185.972C69.2209 175.261 71.9217 162.388 72.4206 148.418C72.9859 131.593 72.953 104.844 72.9859 89.6159C72.9859 75.612 73.2055 34.6722 72.7664 10.0244C72.6402 3.99767 55.8757 -2.31596 47.9924 0.984053ZM919.367 133.976C916.666 133.976 915.382 136.803 914.344 141.546C910.765 158.091 907 161.823 902.13 161.823C896.702 161.823 891.832 153.634 890.548 137.242C889.577 124.369 889.73 100.633 890.987 77.023C891.24 72.1868 889.916 67.3899 876.917 62.647C871.302 60.6377 863.166 57.6241 859.121 67.4169C847.659 95.0184 843.202 116.992 842.131 125.88C842.106 126.345 841.539 126.412 841.439 125.347C840.787 118.216 839.277 105.25 839.09 77.9945C839.024 72.7256 837.926 68.1683 832.025 64.4631C828.227 62.0812 816.671 57.8102 812.494 62.8665C808.914 67.0107 804.743 78.1272 800.379 91.3128C796.86 102.05 794.412 109.335 794.412 109.335C794.412 109.335 794.437 80.3824 794.505 69.3927C794.505 65.248 791.678 63.8709 790.833 63.6179C786.968 62.4873 779.337 60.6377 776.138 60.6377C772.152 60.6377 771.208 62.8665 771.208 66.0997C771.208 66.5053 770.549 104.179 770.549 130.523V134.228C768.38 146.35 761.229 162.801 753.472 162.801C745.715 162.801 742.043 155.922 742.043 124.529C742.043 106.221 742.609 98.2516 742.861 84.9997C743.014 77.3688 743.326 71.5012 743.3 70.1511C743.234 66.0997 736.169 64.0241 732.902 63.2722C729.609 62.4873 726.749 62.2344 724.493 62.3277C721.354 62.5203 719.125 64.5894 719.125 67.4832V71.8739C715.073 65.474 708.507 61.0105 704.117 59.7262C692.375 56.2406 680.094 59.347 670.834 72.2796C663.489 82.5848 659.058 94.2266 657.336 110.965C656.045 123.212 656.457 135.612 658.746 146.097C655.985 157.932 650.896 162.801 645.341 162.801C637.238 162.801 631.404 149.609 632.063 126.784C632.535 111.783 635.515 101.265 638.808 86.004C640.225 79.5043 639.061 76.1185 636.207 72.8184C633.599 69.8647 628.011 68.328 620.008 70.1775C614.32 71.5282 606.131 72.9716 598.686 74.0758C598.686 74.0758 599.125 72.2796 599.505 69.1133C601.421 52.5015 583.366 53.8521 577.618 59.1609C574.165 62.3277 571.81 66.0662 570.932 72.7855C569.522 83.4629 578.217 88.4853 578.217 88.4853C575.363 101.545 568.39 118.621 561.139 130.962C557.274 137.588 554.32 142.458 550.495 147.667C550.46 145.751 550.46 143.802 550.46 141.892C550.394 114.417 550.74 92.7897 550.9 84.9997C551.059 77.3688 551.372 71.6544 551.372 70.3038C551.306 67.35 549.582 66.1925 545.936 64.8089C542.737 63.5581 538.938 62.647 535.013 62.3277C530.084 61.9549 527.07 64.5894 527.163 67.6963V71.8739C523.085 65.474 516.519 61.0105 512.188 59.7262C500.413 56.2406 488.139 59.347 478.879 72.2796C471.561 82.5848 466.724 96.9943 465.341 110.805C464.09 123.744 464.309 134.667 466.066 143.901C464.183 153.128 458.814 162.801 452.727 162.801C444.97 162.801 440.54 155.922 440.54 124.529C440.54 106.221 441.105 98.2516 441.391 84.9997C441.545 77.3688 441.83 71.5012 441.797 70.1511C441.764 66.0997 434.706 64.0241 431.406 63.2722C427.986 62.4604 425 62.2079 422.737 62.3277C419.724 62.5801 417.622 65.248 417.622 67.2902V71.8739C413.544 65.474 406.978 61.0105 402.613 59.7262C390.872 56.2406 378.691 59.4138 369.364 72.2796C363.277 80.6688 358.347 89.9891 355.806 110.652C355.114 116.619 354.768 122.201 354.801 127.416C352.38 142.231 341.676 159.315 332.947 159.315C327.798 159.315 322.902 149.39 322.902 128.201C322.902 100.008 324.659 59.8195 324.971 55.9277C324.971 55.9277 336.021 55.7346 338.19 55.7082C343.685 55.6747 348.708 55.8015 356.026 55.4223C359.731 55.2362 363.277 42.0172 359.445 40.3542C357.748 39.6287 345.568 38.9701 340.731 38.8773C336.653 38.784 325.377 37.9393 325.377 37.9393C325.377 37.9393 326.388 11.2822 326.608 8.48816C326.794 6.09972 323.78 4.90924 322.024 4.18378C317.78 2.36762 313.981 1.51643 309.524 0.604856C303.277 -0.678926 300.483 0.578412 299.951 5.81383C299.133 13.7635 298.694 37.0612 298.694 37.0612C294.11 37.0612 278.57 36.1431 274.012 36.1431C269.781 36.1431 265.191 54.3575 271.066 54.5771C277.818 54.83 289.526 55.083 297.31 55.2956C297.31 55.2956 296.964 96.1491 296.964 108.736V112.628C292.666 134.947 277.625 147.008 277.625 147.008C280.858 132.22 274.265 121.136 262.337 111.783C257.94 108.297 249.278 101.731 239.572 94.6058C239.572 94.6058 245.193 89.0511 250.183 77.9346C253.702 70.0513 253.862 60.9835 245.193 59.0012C230.877 55.7082 219.102 66.2259 215.556 77.4621C212.855 86.1303 214.272 92.5966 219.634 99.2824L220.858 100.793C217.659 107.006 213.201 115.388 209.462 121.888C199.011 139.943 191.128 154.2 185.194 154.2C180.424 154.2 180.484 139.724 180.484 126.159C180.484 114.477 181.362 96.8675 182.054 78.6596C182.274 72.6588 179.26 69.2061 174.211 66.0997C171.13 64.2167 164.597 60.5115 160.799 60.5115C155.151 60.5115 138.759 61.2629 123.285 106.002C121.336 111.656 117.504 121.921 117.504 121.921L117.85 68.1084C117.85 66.8511 117.191 65.6606 115.655 64.8089C113.047 63.3984 106.048 60.5115 99.8945 60.5115C96.9073 60.5115 95.4304 61.8951 95.4304 64.6228L94.9315 148.765C94.9315 155.171 95.0846 162.642 95.7168 165.908C96.342 169.174 97.3798 171.842 98.6371 173.439C99.8945 174.982 101.365 176.173 103.753 176.705C105.982 177.177 118.256 178.714 118.888 174.038C119.673 168.416 119.699 162.362 126.139 139.664C136.184 104.372 149.25 87.1681 155.403 81.041C156.501 79.9768 157.726 79.9104 157.659 81.6732C157.379 89.4233 156.468 108.736 155.842 125.155C154.18 169.141 162.149 177.271 173.612 177.271C182.34 177.271 194.647 168.576 207.866 146.602C216.122 132.878 224.098 119.473 229.873 109.774C233.831 113.472 238.348 117.464 242.838 121.735C253.296 131.621 256.716 141.041 254.427 149.962C252.697 156.801 246.138 163.833 234.489 156.994C231.097 155.011 229.653 153.475 226.233 151.212C224.411 149.989 221.583 149.643 219.92 150.9C215.523 154.2 213.041 158.371 211.598 163.553C210.247 168.609 215.304 171.244 220.545 173.565C225.036 175.608 234.709 177.397 240.889 177.617C264.971 178.435 284.251 166.001 297.656 133.976C300.077 161.637 310.276 177.304 328.018 177.304C339.913 177.304 351.815 161.95 357.03 146.849C358.5 153.002 360.729 158.337 363.59 162.895C377.281 184.555 403.837 179.912 417.149 161.511C421.294 155.796 421.926 153.754 421.926 153.754C423.868 171.124 437.872 177.237 445.882 177.237C454.889 177.237 464.123 172.973 470.616 158.337C471.401 159.941 472.22 161.451 473.164 162.895C486.822 184.555 513.379 179.912 526.724 161.511C527.323 160.6 527.888 159.848 528.354 159.123L528.766 170.552C528.766 170.552 521.136 177.524 516.459 181.821C495.896 200.695 480.256 215.011 479.099 231.649C477.655 252.904 494.858 260.787 507.918 261.818C521.735 262.923 533.603 255.292 540.881 244.555C547.287 235.135 551.498 214.885 551.186 194.854C551.06 186.817 550.867 176.646 550.68 165.689C557.932 157.339 566.094 146.722 573.571 134.295C581.761 120.79 590.489 102.609 594.946 88.4523C594.946 88.4523 602.577 88.5187 610.68 88.0133C613.287 87.8536 614.039 88.3925 613.534 90.275C612.968 92.5636 603.302 129.898 612.123 154.765C618.184 171.776 631.775 177.271 639.878 177.271C649.325 177.271 658.372 170.112 663.202 159.502C663.8 160.666 664.399 161.823 665.091 162.895C678.749 184.555 705.213 179.879 718.651 161.511C721.698 157.339 723.394 153.754 723.394 153.754C726.282 171.749 740.285 177.304 748.288 177.304C756.671 177.304 764.58 173.884 771.02 158.684C771.273 165.376 771.679 170.838 772.37 172.561C772.776 173.632 775.165 174.949 776.861 175.608C784.518 178.435 792.308 177.085 795.162 176.486C797.172 176.08 798.742 174.51 798.934 170.365C799.493 159.502 799.147 141.261 802.447 127.669C808.002 104.937 813.151 96.1161 815.599 91.7519C816.956 89.2971 818.52 88.8914 818.553 91.466C818.646 96.7079 818.932 112.095 821.094 132.818C822.638 148.013 824.74 157.02 826.37 159.881C830.953 168.01 836.668 168.39 841.285 168.39C844.238 168.39 850.392 167.571 849.853 162.389C849.574 159.881 850.047 144.274 855.475 121.862C859.054 107.199 864.988 93.9806 867.123 89.1439C867.942 87.3547 868.287 88.7382 868.287 89.0177C867.815 99.0963 866.811 132.093 870.889 150.115C876.484 174.576 892.583 177.304 898.204 177.304C910.166 177.304 919.998 168.196 923.291 144.214C924.109 138.433 922.912 133.976 919.366 133.976H919.367ZM417.369 119.16C416.71 131.84 414.228 142.457 410.277 150.148C403.052 164.118 388.836 168.515 382.582 148.391C378.032 133.856 379.569 114.011 381.485 103.3C384.245 87.414 391.251 76.1778 402.174 77.2087C413.35 78.3133 418.812 92.7228 417.369 119.16ZM526.911 119.346C526.286 131.308 523.179 143.362 519.786 150.148C512.788 164.211 498.152 168.609 492.092 148.391C487.954 134.541 488.925 116.679 490.994 105.436C493.668 90.8069 500.101 77.2087 511.69 77.2087C522.96 77.2087 528.514 89.5825 526.911 119.346V119.346ZM529.772 201.1C529.612 222.987 526.193 242.139 518.841 247.728C508.357 255.638 494.26 249.67 497.181 233.724C499.755 219.594 511.969 205.185 529.805 187.568C529.805 187.568 529.865 191.586 529.77 201.1H529.772ZM718.905 119.473C718.273 132.631 715.352 142.897 711.746 150.148C704.741 164.211 690.238 168.575 684.052 148.391C680.692 137.368 680.532 118.967 682.954 103.62C685.402 87.9793 692.281 76.1778 703.644 77.2087C714.88 78.2799 720.129 92.7228 718.905 119.473Z" fill="#231E1F"/>
</svg>
